<svg id="Layer_1" data-name="Layer 1" xmlns="http://www.w3.org/2000/svg" viewBox="0 0 852.69 644.07"><defs><style>.cls-1{fill:#4271b7;}.cls-2{fill:#fff;}</style></defs><title>chatbot-01</title><path class="cls-1" d="M483.65,589.5c-30.45,0-60.89,0-91.34,0-12.61,0-25.36-1.06-31.44-13.46-6.21-12.68-2-24.64,6.27-35.28,8.05-10.3,19.5-15.66,33.1-16,18.43-.4,36.89-.26,55.33,0,12,.13,22.28,4.58,30.13,13,3.38,3.62,6.71,5.09,11.89,5.09,24.29,0,48.59.39,72.88.65,32.3.35,57.71-13.18,77.57-35.53,29.4-33.09,47.72-71.53,57.34-113.32C736.7,258.39,646.58,122,501.85,85.93c-162.82-40.62-327,58.79-353,213.92-10.08,59.95,1.26,116.46,32.66,169.52,3.75,6.34,7,12.58,4.77,20.09-2.78,9.32-9.59,14.89-19.35,17-10,2.17-18.83-.43-24.62-8.61-5.1-7.19-7.54-17.72-14.49-21.59-6.65-3.71-17.55-.81-26.51-2.55-39.12-7.6-69.4-40.65-70-77.94-.59-36.79-.68-73.6,0-110.38.84-44.8,42.76-81.28,90.87-79.61,5.84.2,8-1.79,10.39-6.05C183.41,110.37,262.28,55.43,368.72,36,510.3,10.18,656.27,77.21,723.05,197.78c3.12,5.65,6,8.15,13.55,8,47.79-.81,88.36,36.08,88.88,80.67q.64,54,0,107.93c-.52,45.28-42,82.29-90.51,80.81-6.66-.2-9.08,2-11.61,7-12.52,24.39-26.71,47.75-47.9,66.87-29.54,26.64-64.4,40.72-105.76,40.51C541,589.39,512.34,589.51,483.65,589.5Z"/><path class="cls-1" d="M201.6,348.89c.43-53.11,19.72-99.63,54.52-141.63,22.38-27,49.94-34.55,84.37-27.1C363,185,385.13,191,408,194.1c29.43,3.93,57.54-2.36,85.67-8.9,16.72-3.9,33.39-7.94,50.89-7.71,17,.23,31.59,5.44,43.15,17,50.22,50.14,72.94,109.2,66,177.78-2,19.61-6.26,38.65-14.55,56.89-7.57,16.62-19.61,25.09-40.1,23.76-26.12-1.71-51.57-6.63-76.79-12.25-67.84-15.12-135.07-12.39-202.35,2.79-20.7,4.67-41.64,8.32-63.09,9.42-15.79.81-26.24-5.65-34-17.44-11.55-17.55-16.23-37.15-19.31-57.17A156.84,156.84,0,0,1,201.6,348.89Z"/><path class="cls-2" d="M269.78,315.56c-.13-21.52,17.76-38.47,40.8-38.68,23.2-.2,42.12,17.21,42,38.65-.12,21-18.94,38.44-41.51,38.49C288.34,354.06,269.9,336.88,269.78,315.56Z"/><path class="cls-2" d="M586.88,315.7c-.17,21.3-18.74,38.48-41.42,38.32s-41.28-17.6-41.33-38.63c-.05-21.49,18.85-38.78,42.1-38.5C569.24,277.16,587.05,294.17,586.88,315.7Z"/></svg>